<mxfile host="app.diagrams.net" modified="2023-08-13T03:45:22.462Z" agent="Mozilla/5.0 (Windows NT 10.0; Win64; x64) AppleWebKit/537.36 (KHTML, like Gecko) Chrome/115.0.0.0 Safari/537.36 Edg/115.0.1901.203" version="21.6.8" etag="E_vO0VrhWYS3Rgp801Q_" type="github">
  <diagram name="PÃ¡gina-1" id="1kMkWw9JpH-2EFDvbm_D">
    <mxGraphModel>
      <root>
        <mxCell id="0" />
        <mxCell id="1" parent="0" />
      </root>
    </mxGraphModel>
  </diagram>
</mxfile>
